<svg width="44" height="45" viewBox="0 0 44 45" fill="none" xmlns="http://www.w3.org/2000/svg">
<g clip-path="url(#clip0_151_303)">
<path d="M34.8333 0H9.16667C4.10483 0 0 4.19813 0 9.375V35.625C0 40.8019 4.10483 45 9.16667 45H34.8333C39.897 45 44 40.8019 44 35.625V9.375C44 4.19813 39.897 0 34.8333 0ZM14.6667 35.625H9.16667V15H14.6667V35.625ZM11.9167 12.6225C10.1457 12.6225 8.70833 11.1412 8.70833 9.315C8.70833 7.48875 10.1457 6.0075 11.9167 6.0075C13.6877 6.0075 15.125 7.48875 15.125 9.315C15.125 11.1412 13.6895 12.6225 11.9167 12.6225ZM36.6667 35.625H31.1667V25.1175C31.1667 18.8025 23.8333 19.2806 23.8333 25.1175V35.625H18.3333V15H23.8333V18.3094C26.3927 13.4606 36.6667 13.1025 36.6667 22.9519V35.625Z" fill="#1E1E1E"/>
</g>
<defs>
<clipPath id="clip0_151_303">
<rect width="44" height="45" fill="white"/>
</clipPath>
</defs>
</svg>
